<svg xmlns="http://www.w3.org/2000/svg" version="1.1" xmlns:xlink="http://www.w3.org/1999/xlink" xmlns:svgjs="http://svgjs.dev/svgjs" width="1440" height="560" preserveAspectRatio="none" viewBox="0 0 1440 560"><g mask="url(&quot;#SvgjsMask2036&quot;)" fill="none"><rect width="1440" height="560" x="0" y="0" fill="rgba(93, 63, 211, 1)"></rect><g mask="url(&quot;#SvgjsMask2038&quot;)"><path d="M187.5 262.5L212.5 262.5L237.5 262.5L262.5 262.5L287.5 262.5M162.5 287.5L187.5 287.5L212.5 287.5M-12.5 287.5L12.5 287.5L37.5 287.5L62.5 287.5L87.5 287.5L112.5 287.5L137.5 287.5L162.5 287.5L187.5 262.5L212.5 237.5L237.5 237.5" stroke="url(&quot;#SvgjsRadialGradient2037&quot;)" stroke-width="4.17"></path><path d="M231.25 237.5 a6.25 6.25 0 1 0 12.5 0 a6.25 6.25 0 1 0 -12.5 0zM281.25 262.5 a6.25 6.25 0 1 0 12.5 0 a6.25 6.25 0 1 0 -12.5 0zM206.25 287.5 a6.25 6.25 0 1 0 12.5 0 a6.25 6.25 0 1 0 -12.5 0z" fill="url(&quot;#SvgjsRadialGradient2037&quot;)"></path><path d="M237.5 187.5L262.5 212.5L287.5 212.5L312.5 212.5L337.5 212.5L362.5 212.5L387.5 212.5L412.5 237.5L437.5 237.5L462.5 237.5M487.5 212.5L512.5 187.5M537.5 212.5L562.5 237.5L587.5 237.5L612.5 237.5L637.5 237.5L662.5 237.5M212.5 212.5L237.5 212.5M437.5 212.5L462.5 187.5M412.5 212.5L437.5 187.5L462.5 162.5L487.5 162.5M387.5 187.5L412.5 187.5M-12.5 262.5L12.5 262.5L37.5 262.5L62.5 262.5L87.5 262.5L112.5 262.5L137.5 262.5L162.5 262.5L187.5 237.5L212.5 212.5L237.5 187.5L262.5 187.5L287.5 187.5L312.5 187.5L337.5 187.5L362.5 187.5L387.5 187.5L412.5 212.5L437.5 212.5L462.5 212.5L487.5 212.5L512.5 212.5L537.5 212.5L562.5 212.5L587.5 212.5L612.5 212.5L637.5 212.5L662.5 212.5" stroke="url(&quot;#SvgjsRadialGradient2037&quot;)" stroke-width="4.17"></path><path d="M656.25 212.5 a6.25 6.25 0 1 0 12.5 0 a6.25 6.25 0 1 0 -12.5 0zM456.25 237.5 a6.25 6.25 0 1 0 12.5 0 a6.25 6.25 0 1 0 -12.5 0zM506.25 187.5 a6.25 6.25 0 1 0 12.5 0 a6.25 6.25 0 1 0 -12.5 0zM656.25 237.5 a6.25 6.25 0 1 0 12.5 0 a6.25 6.25 0 1 0 -12.5 0zM231.25 212.5 a6.25 6.25 0 1 0 12.5 0 a6.25 6.25 0 1 0 -12.5 0zM456.25 187.5 a6.25 6.25 0 1 0 12.5 0 a6.25 6.25 0 1 0 -12.5 0zM481.25 162.5 a6.25 6.25 0 1 0 12.5 0 a6.25 6.25 0 1 0 -12.5 0zM406.25 187.5 a6.25 6.25 0 1 0 12.5 0 a6.25 6.25 0 1 0 -12.5 0z" fill="url(&quot;#SvgjsRadialGradient2037&quot;)"></path><path d="M137.5 312.5L162.5 337.5M212.5 312.5L237.5 312.5L262.5 312.5L287.5 312.5L312.5 312.5M187.5 312.5L212.5 337.5L237.5 337.5M-12.5 312.5L12.5 312.5L37.5 312.5L62.5 312.5L87.5 312.5L112.5 312.5L137.5 312.5L162.5 312.5L187.5 312.5L212.5 312.5L237.5 287.5L262.5 287.5" stroke="url(&quot;#SvgjsRadialGradient2037&quot;)" stroke-width="4.17"></path><path d="M256.25 287.5 a6.25 6.25 0 1 0 12.5 0 a6.25 6.25 0 1 0 -12.5 0zM156.25 337.5 a6.25 6.25 0 1 0 12.5 0 a6.25 6.25 0 1 0 -12.5 0zM306.25 312.5 a6.25 6.25 0 1 0 12.5 0 a6.25 6.25 0 1 0 -12.5 0zM231.25 337.5 a6.25 6.25 0 1 0 12.5 0 a6.25 6.25 0 1 0 -12.5 0z" fill="url(&quot;#SvgjsRadialGradient2037&quot;)"></path><path d="M362.5 162.5L387.5 137.5L412.5 137.5L437.5 137.5L462.5 137.5L487.5 137.5L512.5 137.5M287.5 162.5L312.5 137.5L337.5 137.5M87.5 237.5L112.5 212.5M137.5 237.5L162.5 212.5L187.5 187.5M-12.5 237.5L12.5 237.5L37.5 237.5L62.5 237.5L87.5 237.5L112.5 237.5L137.5 237.5L162.5 237.5L187.5 212.5L212.5 187.5L237.5 162.5L262.5 162.5L287.5 162.5L312.5 162.5L337.5 162.5L362.5 162.5L387.5 162.5L412.5 162.5" stroke="url(&quot;#SvgjsRadialGradient2037&quot;)" stroke-width="4.17"></path><path d="M406.25 162.5 a6.25 6.25 0 1 0 12.5 0 a6.25 6.25 0 1 0 -12.5 0zM506.25 137.5 a6.25 6.25 0 1 0 12.5 0 a6.25 6.25 0 1 0 -12.5 0zM331.25 137.5 a6.25 6.25 0 1 0 12.5 0 a6.25 6.25 0 1 0 -12.5 0zM106.25 212.5 a6.25 6.25 0 1 0 12.5 0 a6.25 6.25 0 1 0 -12.5 0zM181.25 187.5 a6.25 6.25 0 1 0 12.5 0 a6.25 6.25 0 1 0 -12.5 0z" fill="url(&quot;#SvgjsRadialGradient2037&quot;)"></path><path d="M-12.5 337.5L12.5 337.5L37.5 337.5L62.5 337.5L87.5 337.5L112.5 337.5" stroke="url(&quot;#SvgjsRadialGradient2037&quot;)" stroke-width="4.17"></path><path d="M106.25 337.5 a6.25 6.25 0 1 0 12.5 0 a6.25 6.25 0 1 0 -12.5 0z" fill="url(&quot;#SvgjsRadialGradient2037&quot;)"></path><path d="M12.5 212.5L37.5 187.5L62.5 187.5M-12.5 212.5L12.5 212.5L37.5 212.5L62.5 212.5" stroke="url(&quot;#SvgjsRadialGradient2037&quot;)" stroke-width="4.17"></path><path d="M56.25 212.5 a6.25 6.25 0 1 0 12.5 0 a6.25 6.25 0 1 0 -12.5 0zM56.25 187.5 a6.25 6.25 0 1 0 12.5 0 a6.25 6.25 0 1 0 -12.5 0z" fill="url(&quot;#SvgjsRadialGradient2037&quot;)"></path><path d="M62.5 362.5L87.5 387.5M312.5 337.5L337.5 337.5L362.5 337.5L387.5 337.5L412.5 337.5M362.5 312.5L387.5 287.5L412.5 287.5M262.5 337.5L287.5 362.5L312.5 362.5L337.5 362.5L362.5 362.5L387.5 362.5M-12.5 362.5L12.5 362.5L37.5 362.5L62.5 362.5L87.5 362.5L112.5 362.5L137.5 362.5L162.5 362.5L187.5 362.5L212.5 362.5L237.5 362.5L262.5 337.5L287.5 337.5L312.5 337.5L337.5 312.5L362.5 312.5L387.5 312.5L412.5 312.5" stroke="url(&quot;#SvgjsRadialGradient2037&quot;)" stroke-width="4.17"></path><path d="M406.25 312.5 a6.25 6.25 0 1 0 12.5 0 a6.25 6.25 0 1 0 -12.5 0zM81.25 387.5 a6.25 6.25 0 1 0 12.5 0 a6.25 6.25 0 1 0 -12.5 0zM406.25 337.5 a6.25 6.25 0 1 0 12.5 0 a6.25 6.25 0 1 0 -12.5 0zM406.25 287.5 a6.25 6.25 0 1 0 12.5 0 a6.25 6.25 0 1 0 -12.5 0zM381.25 362.5 a6.25 6.25 0 1 0 12.5 0 a6.25 6.25 0 1 0 -12.5 0z" fill="url(&quot;#SvgjsRadialGradient2037&quot;)"></path><path d="M162.5 162.5L187.5 137.5L212.5 137.5L237.5 112.5M112.5 162.5L137.5 187.5L162.5 187.5M87.5 162.5L112.5 187.5M-12.5 187.5L12.5 162.5L37.5 162.5L62.5 162.5L87.5 162.5L112.5 162.5L137.5 162.5L162.5 162.5L187.5 162.5L212.5 162.5L237.5 137.5" stroke="url(&quot;#SvgjsRadialGradient2037&quot;)" stroke-width="4.17"></path><path d="M231.25 137.5 a6.25 6.25 0 1 0 12.5 0 a6.25 6.25 0 1 0 -12.5 0zM231.25 112.5 a6.25 6.25 0 1 0 12.5 0 a6.25 6.25 0 1 0 -12.5 0zM156.25 187.5 a6.25 6.25 0 1 0 12.5 0 a6.25 6.25 0 1 0 -12.5 0zM106.25 187.5 a6.25 6.25 0 1 0 12.5 0 a6.25 6.25 0 1 0 -12.5 0z" fill="url(&quot;#SvgjsRadialGradient2037&quot;)"></path><path d="M62.5 137.5L87.5 112.5L112.5 112.5L137.5 112.5L162.5 112.5M12.5 137.5L37.5 112.5L62.5 112.5L87.5 87.5M-12.5 162.5L12.5 137.5L37.5 137.5L62.5 137.5L87.5 137.5L112.5 137.5L137.5 137.5" stroke="url(&quot;#SvgjsRadialGradient2037&quot;)" stroke-width="4.17"></path><path d="M131.25 137.5 a6.25 6.25 0 1 0 12.5 0 a6.25 6.25 0 1 0 -12.5 0zM156.25 112.5 a6.25 6.25 0 1 0 12.5 0 a6.25 6.25 0 1 0 -12.5 0zM81.25 87.5 a6.25 6.25 0 1 0 12.5 0 a6.25 6.25 0 1 0 -12.5 0z" fill="url(&quot;#SvgjsRadialGradient2037&quot;)"></path></g></g><defs><mask id="SvgjsMask2036"><rect width="1440" height="560" fill="#ffffff"></rect></mask><radialGradient cx="360" cy="280" r="456.07" gradientUnits="userSpaceOnUse" id="SvgjsRadialGradient2037"><stop stop-color="rgba(255, 255, 255, 1)" offset="1"></stop><stop stop-color="rgba(20, 18, 18, 1)" offset="1"></stop></radialGradient><mask id="SvgjsMask2038"><rect width="1440" height="560" fill="white"></rect><path d="M234.37 237.5 a3.13 3.13 0 1 0 6.26 0 a3.13 3.13 0 1 0 -6.26 0zM284.37 262.5 a3.13 3.13 0 1 0 6.26 0 a3.13 3.13 0 1 0 -6.26 0zM209.37 287.5 a3.13 3.13 0 1 0 6.26 0 a3.13 3.13 0 1 0 -6.26 0z" fill="black"></path><path d="M659.37 212.5 a3.13 3.13 0 1 0 6.26 0 a3.13 3.13 0 1 0 -6.26 0zM459.37 237.5 a3.13 3.13 0 1 0 6.26 0 a3.13 3.13 0 1 0 -6.26 0zM509.37 187.5 a3.13 3.13 0 1 0 6.26 0 a3.13 3.13 0 1 0 -6.26 0zM659.37 237.5 a3.13 3.13 0 1 0 6.26 0 a3.13 3.13 0 1 0 -6.26 0zM234.37 212.5 a3.13 3.13 0 1 0 6.26 0 a3.13 3.13 0 1 0 -6.26 0zM459.37 187.5 a3.13 3.13 0 1 0 6.26 0 a3.13 3.13 0 1 0 -6.26 0zM484.37 162.5 a3.13 3.13 0 1 0 6.26 0 a3.13 3.13 0 1 0 -6.26 0zM409.37 187.5 a3.13 3.13 0 1 0 6.26 0 a3.13 3.13 0 1 0 -6.26 0z" fill="black"></path><path d="M259.37 287.5 a3.13 3.13 0 1 0 6.26 0 a3.13 3.13 0 1 0 -6.26 0zM159.37 337.5 a3.13 3.13 0 1 0 6.26 0 a3.13 3.13 0 1 0 -6.26 0zM309.37 312.5 a3.13 3.13 0 1 0 6.26 0 a3.13 3.13 0 1 0 -6.26 0zM234.37 337.5 a3.13 3.13 0 1 0 6.26 0 a3.13 3.13 0 1 0 -6.26 0z" fill="black"></path><path d="M409.37 162.5 a3.13 3.13 0 1 0 6.26 0 a3.13 3.13 0 1 0 -6.26 0zM509.37 137.5 a3.13 3.13 0 1 0 6.26 0 a3.13 3.13 0 1 0 -6.26 0zM334.37 137.5 a3.13 3.13 0 1 0 6.26 0 a3.13 3.13 0 1 0 -6.26 0zM109.37 212.5 a3.13 3.13 0 1 0 6.26 0 a3.13 3.13 0 1 0 -6.26 0zM184.37 187.5 a3.13 3.13 0 1 0 6.26 0 a3.13 3.13 0 1 0 -6.26 0z" fill="black"></path><path d="M109.37 337.5 a3.13 3.13 0 1 0 6.26 0 a3.13 3.13 0 1 0 -6.26 0z" fill="black"></path><path d="M59.37 212.5 a3.13 3.13 0 1 0 6.26 0 a3.13 3.13 0 1 0 -6.26 0zM59.37 187.5 a3.13 3.13 0 1 0 6.26 0 a3.13 3.13 0 1 0 -6.26 0z" fill="black"></path><path d="M409.37 312.5 a3.13 3.13 0 1 0 6.26 0 a3.13 3.13 0 1 0 -6.26 0zM84.37 387.5 a3.13 3.13 0 1 0 6.26 0 a3.13 3.13 0 1 0 -6.26 0zM409.37 337.5 a3.13 3.13 0 1 0 6.26 0 a3.13 3.13 0 1 0 -6.26 0zM409.37 287.5 a3.13 3.13 0 1 0 6.26 0 a3.13 3.13 0 1 0 -6.26 0zM384.37 362.5 a3.13 3.13 0 1 0 6.26 0 a3.13 3.13 0 1 0 -6.26 0z" fill="black"></path><path d="M234.37 137.5 a3.13 3.13 0 1 0 6.26 0 a3.13 3.13 0 1 0 -6.26 0zM234.37 112.5 a3.13 3.13 0 1 0 6.26 0 a3.13 3.13 0 1 0 -6.26 0zM159.37 187.5 a3.13 3.13 0 1 0 6.26 0 a3.13 3.13 0 1 0 -6.26 0zM109.37 187.5 a3.13 3.13 0 1 0 6.26 0 a3.13 3.13 0 1 0 -6.26 0z" fill="black"></path><path d="M134.37 137.5 a3.13 3.13 0 1 0 6.26 0 a3.13 3.13 0 1 0 -6.26 0zM159.37 112.5 a3.13 3.13 0 1 0 6.26 0 a3.13 3.13 0 1 0 -6.26 0zM84.37 87.5 a3.13 3.13 0 1 0 6.26 0 a3.13 3.13 0 1 0 -6.26 0z" fill="black"></path></mask></defs></svg>